<?xml version="1.0" encoding="UTF-8"?>
<svg xmlns="http://www.w3.org/2000/svg" xmlns:xlink="http://www.w3.org/1999/xlink" viewBox="0 0 16 16" width="16px" height="16px">
<g id="surface199535841">
<path style=" stroke:none;fill-rule:nonzero;fill:rgb(100%,100%,100%);fill-opacity:1;" d="M 13.421875 2.761719 C 13.207031 2.765625 13.011719 2.878906 12.898438 3.058594 L 6.878906 12.269531 L 2.980469 8.898438 C 2.8125 8.726562 2.5625 8.660156 2.328125 8.734375 C 2.101562 8.804688 1.929688 9 1.890625 9.238281 C 1.847656 9.476562 1.945312 9.714844 2.140625 9.859375 L 6.601562 13.71875 C 6.738281 13.839844 6.925781 13.890625 7.105469 13.863281 C 7.289062 13.835938 7.449219 13.734375 7.550781 13.578125 L 13.980469 3.761719 C 14.117188 3.558594 14.128906 3.296875 14.011719 3.085938 C 13.890625 2.875 13.664062 2.75 13.421875 2.761719 Z M 13.421875 2.761719 "/>
</g>
</svg>
