<?xml version="1.0" encoding="UTF-8"?>
<svg xmlns="http://www.w3.org/2000/svg" xmlns:xlink="http://www.w3.org/1999/xlink" width="93px" height="105px" viewBox="0 0 93 105" version="1.1">
<defs>
<linearGradient id="linear0" gradientUnits="userSpaceOnUse" x1="41.08" y1="189.19" x2="271.12" y2="189.19" gradientTransform="matrix(0.296395,0,0,0.295991,0.00148615,0)">
<stop offset="0.01" style="stop-color:rgb(21.568627%,41.568627%,69.803922%);stop-opacity:1;"/>
<stop offset="1" style="stop-color:rgb(24.313725%,74.901961%,90.588235%);stop-opacity:1;"/>
</linearGradient>
</defs>
<g id="surface1">
<path style=" stroke:none;fill-rule:nonzero;fill:url(#linear0);" d="M 75.6875 38.773438 C 69.886719 28.890625 59.496094 22.582031 48.039062 21.988281 C 47.445312 21.960938 46.851562 21.945312 46.261719 21.945312 C 34.003906 21.964844 22.695312 28.535156 16.621094 39.164062 C 16.039062 40.191406 15.515625 41.246094 15.046875 42.328125 C 14.804688 42.875 14.585938 43.398438 14.386719 43.925781 L 14.285156 44.203125 C 13.839844 45.398438 13.46875 46.617188 13.167969 47.851562 C 13.011719 48.472656 12.871094 49.121094 12.75 49.773438 C 12.367188 51.832031 12.175781 53.917969 12.175781 56.011719 C 12.171875 60.050781 12.890625 64.0625 14.300781 67.851562 C 14.535156 68.492188 14.800781 69.140625 15.082031 69.769531 C 15.71875 71.207031 16.453125 72.597656 17.285156 73.929688 L 17.34375 74.046875 L 17.378906 74.082031 C 23.4375 83.753906 33.953125 89.75 45.375 90.039062 C 45.671875 90.039062 45.964844 90.039062 46.261719 90.039062 C 47.347656 90.039062 48.421875 89.988281 49.449219 89.890625 C 59.339844 88.96875 68.332031 83.777344 74.070312 75.683594 C 74.628906 74.902344 75.171875 74.0625 75.679688 73.195312 C 81.914062 62.5625 81.914062 49.398438 75.679688 38.765625 Z M 73.90625 72.15625 C 73.425781 72.972656 72.921875 73.753906 72.398438 74.488281 C 67.007812 82.085938 58.566406 86.957031 49.28125 87.824219 C 48.007812 87.949219 46.730469 87.988281 45.449219 87.949219 C 34.683594 87.667969 24.777344 81.996094 19.09375 72.855469 L 19.03125 72.753906 C 18.347656 71.652344 17.734375 70.507812 17.191406 69.328125 L 21.773438 69.328125 L 40.167969 80.058594 C 40.214844 80.085938 40.265625 80.109375 40.3125 80.128906 C 40.34375 80.140625 40.371094 80.148438 40.398438 80.15625 C 40.4375 80.164062 40.476562 80.171875 40.511719 80.179688 C 40.554688 80.179688 40.597656 80.179688 40.640625 80.179688 L 49.402344 80.179688 C 49.859375 81.589844 51.277344 82.457031 52.742188 82.226562 C 54.210938 81.992188 55.289062 80.730469 55.289062 79.25 C 55.289062 77.765625 54.210938 76.503906 52.742188 76.273438 C 51.277344 76.042969 49.859375 76.910156 49.402344 78.320312 L 40.902344 78.320312 L 30.347656 72.15625 L 40.792969 72.15625 C 41.25 73.566406 42.664062 74.433594 44.128906 74.199219 C 45.59375 73.96875 46.671875 72.707031 46.671875 71.226562 C 46.671875 69.746094 45.59375 68.484375 44.128906 68.253906 C 42.664062 68.023438 41.25 68.890625 40.792969 70.296875 L 27.15625 70.296875 L 22.507812 67.582031 L 22.484375 67.582031 C 22.429688 67.554688 22.371094 67.53125 22.3125 67.511719 L 22.246094 67.496094 L 16.382812 67.496094 C 16.335938 67.375 16.292969 67.253906 16.246094 67.132812 C 14.921875 63.574219 14.246094 59.804688 14.253906 56.003906 C 14.25 54.039062 14.429688 52.078125 14.789062 50.144531 L 14.824219 49.957031 L 26.953125 49.957031 C 27.132812 49.957031 27.304688 49.90625 27.457031 49.808594 L 34.035156 45.566406 L 45.507812 45.464844 C 45.914062 46.886719 47.296875 47.804688 48.769531 47.628906 C 50.242188 47.449219 51.363281 46.230469 51.417969 44.75 C 51.472656 43.269531 50.441406 41.96875 48.984375 41.6875 C 47.53125 41.402344 46.085938 42.214844 45.574219 43.605469 L 33.75 43.710938 C 33.574219 43.714844 33.402344 43.765625 33.253906 43.859375 L 26.675781 48.09375 L 15.242188 48.09375 C 15.5 47.074219 15.808594 46.074219 16.160156 45.101562 L 16.304688 44.695312 C 16.492188 44.191406 16.699219 43.6875 16.933594 43.160156 C 17.132812 42.710938 17.339844 42.269531 17.554688 41.828125 L 29.175781 35.046875 L 37.683594 35.046875 C 38.144531 36.457031 39.558594 37.324219 41.027344 37.09375 C 42.492188 36.859375 43.574219 35.597656 43.574219 34.117188 C 43.574219 32.632812 42.492188 31.371094 41.027344 31.140625 C 39.558594 30.910156 38.144531 31.777344 37.683594 33.1875 L 28.839844 33.1875 C 28.816406 33.183594 28.796875 33.183594 28.773438 33.1875 C 28.757812 33.183594 28.738281 33.183594 28.722656 33.1875 C 28.695312 33.191406 28.671875 33.199219 28.648438 33.210938 C 28.59375 33.222656 28.542969 33.246094 28.492188 33.273438 L 28.46875 33.273438 L 19.414062 38.582031 C 25.332031 29.515625 35.429688 24.042969 46.269531 24.027344 C 46.820312 24.027344 47.378906 24.027344 47.929688 24.070312 C 49.476562 24.148438 51.011719 24.335938 52.527344 24.636719 C 62.683594 26.664062 71.230469 33.46875 75.476562 42.902344 C 79.71875 52.339844 79.128906 63.238281 73.894531 72.164062 Z M 73.90625 72.15625 "/>
<path style=" stroke:none;fill-rule:nonzero;fill:rgb(21.568627%,41.960784%,70.196078%);fill-opacity:1;" d="M 37.40625 57.945312 L 39.8125 57.945312 L 39.8125 58.945312 L 37.40625 58.945312 Z M 37.40625 57.945312 "/>
<path style=" stroke:none;fill-rule:nonzero;fill:rgb(21.568627%,41.960784%,70.196078%);fill-opacity:1;" d="M 16.796875 61.449219 L 22.71875 61.449219 L 22.71875 60.457031 L 17.796875 60.457031 L 17.796875 58.808594 L 22.71875 58.808594 L 22.71875 57.820312 L 17.796875 57.820312 L 17.796875 56.183594 L 22.71875 56.183594 L 22.71875 55.183594 L 16.796875 55.183594 Z M 16.796875 61.449219 "/>
<path style=" stroke:none;fill-rule:nonzero;fill:rgb(21.568627%,41.960784%,70.196078%);fill-opacity:1;" d="M 24.550781 55.183594 L 23.554688 55.183594 L 23.554688 61.449219 L 28.773438 61.449219 L 28.773438 60.457031 L 24.550781 60.457031 Z M 24.550781 55.183594 "/>
<path style=" stroke:none;fill-rule:nonzero;fill:rgb(21.568627%,41.960784%,70.196078%);fill-opacity:1;" d="M 30.335938 56.183594 C 30.367188 56.152344 30.410156 56.132812 30.457031 56.132812 C 31.324219 56.09375 32.179688 56.074219 32.996094 56.074219 C 33.8125 56.074219 34.671875 56.09375 35.550781 56.136719 C 35.59375 56.132812 35.636719 56.152344 35.667969 56.183594 C 35.703125 56.214844 35.722656 56.261719 35.71875 56.308594 C 35.71875 56.480469 35.738281 56.652344 35.742188 56.828125 L 35.742188 56.972656 L 36.753906 56.972656 L 36.734375 56.257812 C 36.71875 55.964844 36.589844 55.6875 36.378906 55.480469 C 36.167969 55.273438 35.886719 55.148438 35.59375 55.136719 C 34.703125 55.097656 33.839844 55.078125 33.003906 55.078125 C 32.171875 55.078125 31.300781 55.097656 30.421875 55.136719 C 30.125 55.148438 29.84375 55.269531 29.636719 55.480469 C 29.421875 55.683594 29.296875 55.964844 29.289062 56.261719 C 29.21875 57.625 29.21875 59.007812 29.289062 60.367188 C 29.316406 60.980469 29.804688 61.46875 30.417969 61.5 C 31.25 61.539062 32.09375 61.558594 33.003906 61.558594 C 33.914062 61.558594 34.761719 61.539062 35.59375 61.5 C 35.890625 61.488281 36.167969 61.367188 36.378906 61.15625 C 36.589844 60.945312 36.71875 60.664062 36.734375 60.367188 L 36.753906 59.664062 L 35.746094 59.664062 L 35.746094 59.804688 C 35.746094 59.976562 35.746094 60.152344 35.722656 60.320312 C 35.722656 60.363281 35.703125 60.40625 35.667969 60.433594 C 35.636719 60.46875 35.59375 60.492188 35.546875 60.496094 C 34.675781 60.535156 33.816406 60.554688 33 60.554688 C 32.179688 60.554688 31.328125 60.535156 30.460938 60.496094 C 30.414062 60.492188 30.367188 60.46875 30.335938 60.433594 C 30.300781 60.402344 30.28125 60.359375 30.277344 60.3125 C 30.210938 58.976562 30.210938 57.636719 30.277344 56.304688 C 30.28125 56.257812 30.300781 56.214844 30.335938 56.183594 Z M 30.335938 56.183594 "/>
<path style=" stroke:none;fill-rule:nonzero;fill:rgb(21.568627%,41.960784%,70.196078%);fill-opacity:1;" d="M 75.738281 56.183594 L 75.738281 55.183594 L 69.824219 55.183594 L 69.824219 61.449219 L 75.738281 61.449219 L 75.738281 60.457031 L 70.820312 60.457031 L 70.820312 58.808594 L 75.738281 58.808594 L 75.738281 57.820312 L 70.820312 57.820312 L 70.820312 56.183594 Z M 75.738281 56.183594 "/>
<path style=" stroke:none;fill-rule:nonzero;fill:rgb(21.568627%,41.960784%,70.196078%);fill-opacity:1;" d="M 68.488281 55.53125 C 68.277344 55.320312 67.996094 55.195312 67.699219 55.183594 L 61.078125 55.183594 L 61.078125 56.183594 L 61.511719 56.183594 L 61.511719 61.449219 L 67.703125 61.449219 C 68.320312 61.425781 68.816406 60.929688 68.839844 60.3125 L 68.839844 56.3125 C 68.828125 56.015625 68.703125 55.738281 68.488281 55.53125 Z M 62.515625 56.183594 L 67.664062 56.183594 C 67.707031 56.183594 67.75 56.199219 67.78125 56.230469 C 67.8125 56.261719 67.832031 56.304688 67.839844 56.351562 L 67.839844 60.273438 C 67.835938 60.320312 67.816406 60.363281 67.785156 60.398438 C 67.753906 60.429688 67.710938 60.449219 67.664062 60.453125 L 62.515625 60.453125 Z M 62.515625 56.183594 "/>
<path style=" stroke:none;fill-rule:nonzero;fill:rgb(21.568627%,41.960784%,70.196078%);fill-opacity:1;" d="M 56.492188 55.183594 L 53.707031 61.242188 L 53.707031 61.265625 L 50.636719 59.179688 L 52.070312 59.179688 C 52.367188 59.167969 52.644531 59.042969 52.855469 58.835938 C 53.066406 58.625 53.191406 58.34375 53.203125 58.042969 L 53.203125 56.324219 C 53.175781 55.707031 52.679688 55.210938 52.0625 55.1875 L 46.308594 55.1875 L 46.308594 61.453125 L 47.304688 61.453125 L 47.304688 59.183594 L 48.839844 59.183594 L 52.167969 61.425781 L 52.207031 61.449219 L 54.726562 61.449219 L 55.320312 60.160156 L 59.429688 60.160156 L 60.023438 61.449219 L 61.125 61.449219 L 58.246094 55.183594 Z M 47.304688 56.183594 L 52.015625 56.183594 C 52.058594 56.183594 52.101562 56.199219 52.132812 56.230469 C 52.167969 56.261719 52.1875 56.304688 52.195312 56.351562 L 52.195312 58.015625 C 52.191406 58.0625 52.167969 58.109375 52.132812 58.144531 C 52.105469 58.175781 52.058594 58.191406 52.015625 58.1875 L 47.304688 58.1875 Z M 57.585938 56.183594 L 58.953125 59.164062 L 55.769531 59.164062 L 57.132812 56.183594 Z M 57.585938 56.183594 "/>
<path style=" stroke:none;fill-rule:nonzero;fill:rgb(21.568627%,41.960784%,70.196078%);fill-opacity:1;" d="M 39.875 56.183594 L 42.335938 56.183594 L 42.335938 61.449219 L 43.332031 61.449219 L 43.332031 56.183594 L 45.792969 56.183594 L 45.792969 55.183594 L 39.875 55.183594 Z M 39.875 56.183594 "/>
</g>
</svg>
