<svg id="Layer_1" data-name="Layer 1" xmlns="http://www.w3.org/2000/svg" xmlns:xlink="http://www.w3.org/1999/xlink" viewBox="0 0 313.76 354.74"><defs><style>.cls-1{fill:url(#linear-gradient);}.cls-2{fill:#376bb3;}</style><linearGradient id="linear-gradient" x1="41.08" y1="189.19" x2="271.12" y2="189.19" gradientUnits="userSpaceOnUse"><stop offset="0.01" stop-color="#376ab2"/><stop offset="1" stop-color="#3ebfe7"/></linearGradient></defs><path class="cls-1" d="M255.35,131a115,115,0,0,0-93.28-56.71c-2-.1-4-.15-6-.15a115.34,115.34,0,0,0-100,58.18A110.71,110.71,0,0,0,50.76,143c-.82,1.85-1.55,3.62-2.22,5.4l-.35.94a109.82,109.82,0,0,0-3.77,12.33c-.53,2.1-1,4.28-1.41,6.49a115.66,115.66,0,0,0-1.93,21.07,114.34,114.34,0,0,0,7.16,40c.8,2.17,1.69,4.36,2.64,6.49a112.23,112.23,0,0,0,7.43,14.05l.2.39.12.12a114.83,114.83,0,0,0,94.45,53.91c1,0,2,0,3,0,3.66,0,7.28-.17,10.75-.5a114.85,114.85,0,0,0,83.07-48c1.88-2.64,3.71-5.47,5.43-8.4a115.13,115.13,0,0,0,0-116.32Zm-6,112.78c-1.62,2.75-3.33,5.4-5.09,7.88a107.9,107.9,0,0,1-78,45.05,101.29,101.29,0,0,1-12.92.43,108,108,0,0,1-88.92-51l-.21-.34h0a106.4,106.4,0,0,1-6.22-11.58H73.46l62.06,36.26a3.12,3.12,0,0,0,.49.23,1.4,1.4,0,0,0,.29.09,2.33,2.33,0,0,0,.38.08,3.11,3.11,0,0,0,.43,0h29.56a10.18,10.18,0,1,0,0-6.28H138l-35.62-20.82h35.24a10.17,10.17,0,1,0,0-6.28h-46l-15.69-9.17-.08,0a2.87,2.87,0,0,0-.57-.24l-.23-.06-.16,0-.25,0s0,0,0,0H55.27c-.16-.41-.31-.81-.46-1.22a107.34,107.34,0,0,1-6.73-37.6,108.84,108.84,0,0,1,1.81-19.8l.12-.63H90.93a3.21,3.21,0,0,0,1.7-.5l22.2-14.33,38.7-.35a10.17,10.17,0,1,0,.23-6.28l-39.9.36a3.11,3.11,0,0,0-1.67.5L90,162.48H51.42c.87-3.44,1.91-6.82,3.1-10.11L55,151c.64-1.7,1.33-3.4,2.13-5.19q1-2.26,2.09-4.5l39.21-22.91h28.71a10.18,10.18,0,1,0,0-6.28H97.61l-.31,0a.91.91,0,0,0-.23,0,.51.51,0,0,0-.17,0,1.21,1.21,0,0,0-.25.08,1.81,1.81,0,0,0-.52.22l-.09,0L65.5,130.35a108.35,108.35,0,0,1,90.6-49.18c1.86,0,3.74,0,5.61.15a106.75,106.75,0,0,1,15.5,1.92,108.06,108.06,0,0,1,72.1,160.57Z"/><rect class="cls-2" x="126.2" y="195.77" width="8.12" height="3.37"/><polygon class="cls-2" points="56.67 207.6 76.64 207.6 76.64 204.25 60.04 204.25 60.04 198.69 76.64 198.69 76.64 195.34 60.04 195.34 60.04 189.82 76.64 189.82 76.64 186.44 56.67 186.44 56.67 207.6"/><polygon class="cls-2" points="82.83 186.44 79.47 186.44 79.47 207.6 97.07 207.6 97.07 204.25 82.83 204.25 82.83 186.44"/><path class="cls-2" d="M102.34,189.82a.58.58,0,0,1,.41-.18c2.93-.13,5.81-.2,8.57-.2s5.66.07,8.62.21a.5.5,0,0,1,.39.17.54.54,0,0,1,.18.42c0,.58.06,1.16.08,1.75v.49H124l-.07-2.41a3.94,3.94,0,0,0-1.2-2.63,4,4,0,0,0-2.65-1.16c-3-.13-5.92-.2-8.73-.2s-5.75.07-8.72.2a3.94,3.94,0,0,0-2.65,1.16,3.77,3.77,0,0,0-1.17,2.64c-.23,4.61-.23,9.28,0,13.87a4,4,0,0,0,3.81,3.82c2.81.14,5.66.21,8.73.21s5.92-.07,8.73-.2a3.94,3.94,0,0,0,2.65-1.17,4,4,0,0,0,1.2-2.66l.07-2.38H120.6v.48c0,.58,0,1.17-.08,1.74v0a.53.53,0,0,1-.18.39.65.65,0,0,1-.41.21c-2.94.13-5.84.19-8.6.19s-5.64-.06-8.56-.19a.72.72,0,0,1-.43-.22.59.59,0,0,1-.19-.41,132.94,132.94,0,0,1,0-13.54A.58.58,0,0,1,102.34,189.82Z"/><polygon class="cls-2" points="255.53 189.82 255.53 186.44 235.57 186.44 235.57 207.6 255.53 207.6 255.53 204.25 238.93 204.25 238.93 198.69 255.53 198.69 255.53 195.34 238.93 195.34 238.93 189.82 255.53 189.82"/><path class="cls-2" d="M231.07,187.61a4,4,0,0,0-2.67-1.17H206.06v3.38h1.47v17.79h20.89a4,4,0,0,0,3.83-3.84V190.25A3.87,3.87,0,0,0,231.07,187.61Zm-20.15,2.21h17.37a.5.5,0,0,1,.39.15.75.75,0,0,1,.2.41v13.25a.74.74,0,0,1-.19.42.62.62,0,0,1-.4.19H210.92Z"/><path class="cls-2" d="M190.59,186.44,181.2,206.9l0,.09-10.36-7.05h4.84a4,4,0,0,0,2.64-1.17,3.91,3.91,0,0,0,1.17-2.67v-5.81a4,4,0,0,0-3.84-3.84H156.23v21.17h3.36v-7.67h5.19L176,207.52l.13.09h8.51l2-4.36h13.86l2,4.36h3.72l-9.71-21.17Zm-31,3.38h15.9a.52.52,0,0,1,.4.15.75.75,0,0,1,.2.41V196a.69.69,0,0,1-.2.44.5.5,0,0,1-.4.15l-15.9,0Zm34.69,0,4.61,10.06H188.15l4.61-10.06Z"/><polygon class="cls-2" points="134.53 189.82 142.83 189.82 142.83 207.6 146.19 207.6 146.19 189.82 154.49 189.82 154.49 186.44 134.53 186.44 134.53 189.82"/></svg>