<svg id="Layer_1" data-name="Layer 1" xmlns="http://www.w3.org/2000/svg" xmlns:xlink="http://www.w3.org/1999/xlink" viewBox="0 0 313.76 354.74"><defs><style>.cls-1{fill:url(#linear-gradient);}.cls-2{fill:url(#linear-gradient-2);}</style><linearGradient id="linear-gradient" x1="41.86" y1="177.37" x2="271.9" y2="177.37" gradientUnits="userSpaceOnUse"><stop offset="0.01" stop-color="#396ab1"/><stop offset="1" stop-color="#41bee6"/></linearGradient><linearGradient id="linear-gradient-2" x1="57.45" y1="185.21" x2="256.31" y2="185.21" gradientUnits="userSpaceOnUse"><stop offset="0.01" stop-color="#396ab1"/><stop offset="0.2" stop-color="#3a73b6"/><stop offset="0.5" stop-color="#3c8ac5"/><stop offset="0.88" stop-color="#40b0dd"/><stop offset="1" stop-color="#41bee6"/></linearGradient></defs><path class="cls-1" d="M256.13,119.21A115,115,0,0,0,162.85,62.5c-2-.1-4-.15-6-.15a115.34,115.34,0,0,0-100,58.18,110.71,110.71,0,0,0-5.33,10.61c-.82,1.85-1.55,3.62-2.22,5.4l-.35.94a109.82,109.82,0,0,0-3.77,12.33c-.53,2.1-1,4.28-1.41,6.49a115.66,115.66,0,0,0-1.93,21.07,114.34,114.34,0,0,0,7.16,40c.8,2.17,1.69,4.36,2.64,6.49a112.23,112.23,0,0,0,7.43,14.05l.2.39.12.12a114.83,114.83,0,0,0,94.45,53.91c1,0,2,0,3,0,3.66,0,7.28-.17,10.75-.5a114.85,114.85,0,0,0,83.07-48c1.88-2.64,3.71-5.47,5.43-8.4a115.13,115.13,0,0,0,0-116.32Zm-6,112.78c-1.62,2.75-3.33,5.4-5.09,7.88a107.9,107.9,0,0,1-78,45.05,101.29,101.29,0,0,1-12.92.43,108,108,0,0,1-88.92-51l-.21-.34h0a106.4,106.4,0,0,1-6.22-11.58H74.24l62.06,36.26a3.12,3.12,0,0,0,.49.23,1.4,1.4,0,0,0,.29.09,2.33,2.33,0,0,0,.38.08,3.11,3.11,0,0,0,.43,0h29.56a10.18,10.18,0,1,0,0-6.28H138.73l-35.62-20.82h35.24a10.17,10.17,0,1,0,0-6.28h-46l-15.69-9.17-.08,0a2.87,2.87,0,0,0-.57-.24l-.23-.06-.16,0-.25,0H56.05c-.16-.41-.31-.81-.46-1.22a107.34,107.34,0,0,1-6.73-37.6,108.84,108.84,0,0,1,1.81-19.8l.12-.63H91.71a3.21,3.21,0,0,0,1.7-.5l22.2-14.33,38.7-.35a10.17,10.17,0,1,0,.23-6.28l-39.9.36a3.11,3.11,0,0,0-1.67.5L90.78,150.66H52.2c.87-3.44,1.91-6.82,3.1-10.11l.52-1.4c.64-1.7,1.33-3.4,2.13-5.19q1-2.27,2.09-4.5l39.21-22.91H128a10.18,10.18,0,1,0,0-6.28H98.39l-.31,0a.91.91,0,0,0-.23,0,.51.51,0,0,0-.17,0,1.21,1.21,0,0,0-.25.08,1.81,1.81,0,0,0-.52.22l-.09,0L66.28,118.53a108.35,108.35,0,0,1,90.6-49.18c1.86,0,3.74.05,5.61.15A106.75,106.75,0,0,1,178,71.42,108.06,108.06,0,0,1,250.09,232Z"/><path class="cls-2" d="M127,183.94h8.12v3.37H127ZM57.45,195.78h20v-3.36H60.82v-5.55h16.6v-3.36H60.82V178h16.6v-3.39h-20Zm26.16-21.17H80.25v21.17h17.6v-3.36H83.61ZM103.12,178a.54.54,0,0,1,.41-.18c2.93-.13,5.81-.2,8.57-.2s5.66.07,8.62.2a.62.62,0,0,1,.57.6c0,.58.06,1.15.08,1.75v.48h3.37l-.07-2.4a4,4,0,0,0-3.85-3.79c-3-.13-5.92-.2-8.73-.2s-5.75.07-8.72.2a3.94,3.94,0,0,0-2.65,1.16,3.77,3.77,0,0,0-1.17,2.64c-.23,4.6-.23,9.27,0,13.87a3.82,3.82,0,0,0,1.16,2.66,3.89,3.89,0,0,0,2.65,1.16c2.81.14,5.66.2,8.73.2s5.92-.06,8.73-.2a3.93,3.93,0,0,0,2.65-1.16,4,4,0,0,0,1.2-2.66l.07-2.39h-3.37v.48c0,.59-.05,1.18-.08,1.75v0a.55.55,0,0,1-.18.4.6.6,0,0,1-.41.2c-2.94.13-5.84.2-8.6.2s-5.64-.07-8.56-.2a.65.65,0,0,1-.43-.21.61.61,0,0,1-.19-.41,132.94,132.94,0,0,1,0-13.54A.58.58,0,0,1,103.12,178Zm153.19,0v-3.39h-20v21.17h20v-3.36h-16.6v-5.55h16.6v-3.36h-16.6V178Zm-23.28.43v13.51a4,4,0,0,1-3.83,3.84H208.31V178h-1.47v-3.39h22.34a4,4,0,0,1,2.67,1.18A3.87,3.87,0,0,1,233,178.43Zm-3.37.13a.75.75,0,0,0-.2-.41.5.5,0,0,0-.39-.15H211.7v14.42h17.37a.62.62,0,0,0,.4-.19.74.74,0,0,0,.19-.43Zm-32.43-3.95,9.71,21.17h-3.72l-2-4.35H187.37l-2,4.35h-8.51l-.13-.08-11.18-7.59h-5.19v7.67H157V174.61h19.38a3.94,3.94,0,0,1,2.67,1.2,3.9,3.9,0,0,1,1.17,2.65v5.81a3.91,3.91,0,0,1-1.17,2.67,4,4,0,0,1-2.64,1.17h-4.84l10.36,7,0-.09,9.39-20.46Zm-21,10.11a.5.5,0,0,0,.4-.15.74.74,0,0,0,.2-.44v-5.57a.75.75,0,0,0-.2-.41.52.52,0,0,0-.4-.15h-15.9v6.69Zm23.4,3.34L195.06,178h-1.52l-4.61,10.06ZM135.31,178h8.3v17.78H147V178h8.3v-3.39h-20Z"/></svg>